<?xml version="1.0" encoding="UTF-8"?>
<svg width="169px" height="317px" viewBox="0 0 169 317" version="1.1" xmlns="http://www.w3.org/2000/svg" xmlns:xlink="http://www.w3.org/1999/xlink">
    <!-- Generator: Sketch 48.2 (47327) - http://www.bohemiancoding.com/sketch -->
    <title>noun_26636_cc</title>
    <desc>Created with Sketch.</desc>
    <defs></defs>
    <g id="Homepage" stroke="none" stroke-width="1" fill="none" fill-rule="evenodd" transform="translate(-1014.000000, -5818.000000)">
        <g id="noun_26636_cc" transform="translate(1014.000000, 5818.000000)" fill="#000" fill-rule="nonzero">
            <path d="M168.658296,15.3143574 C168.26597,12.9205646 166.612294,10.9158688 164.346925,10.0826936 C150.522696,5.02443165 132.252101,0.0126922049 112.644222,4.25692746e-06 C97.2633426,-0.00422505906 80.9670352,3.14238603 65.8181769,11.9985737 C58.1910156,16.4435848 52.1795639,22.0643458 47.6024235,28.3914025 C40.7135107,37.8946755 37.0475798,48.8316866 34.9804841,59.9336411 C33.3141519,68.9124789 32.685586,78.0604894 32.348101,86.929365 C28.3995264,87.02241 23.9236315,87.0520152 19.8485,87.0520152 C16.2838146,87.0520152 13.0228656,87.0308686 10.6478149,87.0054927 C9.46239879,86.9928048 8.50478508,86.9843461 7.83825219,86.9758875 C7.17171929,86.9631996 6.81736003,86.9589702 6.80892291,86.9589702 C5.02025235,86.9335943 3.2653303,87.6441194 1.98710583,88.9002263 C0.713099919,90.1647918 -0.0124928521,91.9199579 0.000162835731,93.7174172 L0.265932281,138.378994 C0.291243657,142.100792 3.29486024,145.374283 6.99875822,145.374283 C7.00297679,145.374283 8.78742878,145.374283 11.6771442,145.374283 C18.237009,145.374283 30.4792778,145.090918 39.890891,145.277008 C41.2830166,175.956467 41.6120645,221.933361 41.6120645,257.607641 C41.6120645,272.647089 41.5487861,285.753739 41.4981633,295.193572 C41.4644148,299.900801 41.4391035,303.643745 41.4137921,306.240545 C41.3926993,308.833116 41.3800436,310.220332 41.3800436,310.22879 C41.3631693,312.02202 42.0634507,313.751811 43.3332381,315.029064 C44.5988069,316.297859 46.3284175,317.008384 48.1213067,316.999925 L107.746471,316.699644 C109.53936,316.691185 111.226785,315.972202 112.483917,314.690719 C113.745267,313.413465 114.432892,311.709051 114.416018,309.907362 C114.416018,309.907362 114.103845,273.150377 113.73683,233.50054 C113.424656,199.403794 113.078734,163.217767 112.880461,146.363943 C116.559048,146.300503 120.845108,146.275127 125.013048,146.279356 C129.885487,146.279356 134.627152,146.308961 138.145433,146.338567 C139.900355,146.351255 141.355759,146.368172 142.363996,146.38086 C143.380669,146.393548 143.945957,146.397777 143.945957,146.397777 C145.738846,146.423153 147.464238,145.725316 148.742462,144.46498 C150.020687,143.204644 150.742061,141.487541 150.74628,139.690082 L150.822214,98.3231423 C150.826432,96.525683 150.121932,94.2207058 148.852145,92.9561403 C147.586576,91.6915748 145.882277,90.3974041 144.085169,90.3974041 C144.085169,90.3974041 143.283642,90.3974041 141.857768,90.3974041 C140.431894,90.3974041 138.402765,91.0064256 135.968655,91.0064256 C128.489143,91.0064256 117.174958,91.2728725 108.223168,91.1206172 C108.383474,86.5318093 108.796893,82.6281507 109.471863,79.1685702 C110.121521,75.8020347 111.015857,73.0741259 112.070497,70.8283591 C112.863587,69.1450913 113.745267,67.8170861 114.690225,66.704776 C116.124536,65.0384255 117.676967,63.9134274 119.676566,63.0760229 C121.671946,62.2470769 124.181991,61.752247 127.396535,61.7480176 C133.104251,61.7311004 140.94234,63.4228268 150.758935,67.2249818 C150.830651,67.2545871 150.910803,67.2630457 150.986738,67.2926509 C151.06689,67.3180268 151.130169,67.3645493 151.210321,67.3856959 C151.353753,67.4322183 151.497184,67.4364476 151.640615,67.4702822 C151.868417,67.5252633 152.092001,67.5760151 152.315585,67.6056203 C152.53495,67.6309962 152.750097,67.6394548 152.961025,67.6479134 C153.184609,67.6521428 153.399755,67.6563721 153.623339,67.6436841 C153.842705,67.6267669 154.053633,67.5971617 154.260342,67.5590978 C154.475489,67.5252633 154.690636,67.4829701 154.897345,67.427989 C155.099836,67.3730079 155.302327,67.3011095 155.496381,67.2249818 C155.703091,67.1530835 155.905582,67.0727265 156.099636,66.9754522 C156.289471,66.8824073 156.46665,66.7766744 156.648049,66.6667121 C156.833665,66.5525206 157.019282,66.4298704 157.196462,66.2987616 C157.365204,66.1761115 157.517073,66.0365441 157.668941,65.8927473 C157.837683,65.7404919 157.997989,65.5882366 158.14142,65.4232932 C158.284851,65.2625792 158.411408,65.0934066 158.542183,64.9200046 C158.672959,64.7423734 158.803734,64.5605128 158.917635,64.3659642 C159.027318,64.1798743 159.124345,63.9726379 159.221372,63.7654014 C159.28465,63.6300633 159.364803,63.5074131 159.419644,63.3636164 C159.453393,63.2874887 159.46183,63.2071317 159.49136,63.1225453 C159.512453,63.050647 159.558857,62.9872072 159.57995,62.9110795 C160.934108,58.4364632 163.258536,50.937886 165.253916,43.0248358 C166.249497,39.0577374 167.173362,34.9806768 167.85677,31.0516422 C168.535958,27.1183784 168.995781,23.3627458 169,19.8608721 C168.991563,18.3129425 168.898754,16.8115353 168.658296,15.3143574 Z M112.41642,51.6568697 C109.096411,53.3782013 106.202477,55.8058287 103.886486,58.728286 C100.397735,63.1267747 98.1534593,68.5191525 96.7444594,74.65589 C95.3354595,80.8053155 94.7322051,87.7752282 94.7322051,95.6332973 C94.7322051,96.4368674 94.7406422,97.2531253 94.7490793,98.077842 C94.8081392,101.668531 97.6641061,103.59287 101.245666,103.711291 C110.783836,104.015802 126.41361,103.081123 135.964436,103.081123 C136.462227,103.081123 136.930487,103.081123 137.398747,103.081123 L137.348125,131.895453 C133.918433,131.870077 129.535347,132.335301 125.013048,132.335301 C117.871021,132.335301 110.475881,132.644042 105.755309,132.876654 C102.140001,133.058514 99.3304383,136.188208 99.3810611,139.816961 C99.5624593,151.303784 99.9674413,193.922601 100.330238,233.55975 C100.511636,253.382554 100.680378,272.51598 100.806935,286.658812 C100.865995,293.522992 100.916618,299.219881 100.950366,303.263107 L54.849914,303.508407 C54.9216296,294.597239 55.0186565,277.692663 55.0186565,257.438468 C55.0186565,219.150471 54.6558602,169.020388 52.9768722,138.044878 C52.7912555,134.559922 49.998567,131.815096 46.5224714,131.692445 C37.4399061,131.371017 22.345889,131.311807 13.6429944,131.307578 L13.4573776,100.475864 C15.3557308,100.488552 17.5409462,100.50124 19.8527185,100.50124 C26.4083648,100.497011 33.9258434,100.429342 39.2370138,100.120602 C42.7131094,99.9218237 45.4636122,97.0754941 45.552202,93.5905377 C45.9149984,79.4434757 46.7165253,65.0807186 50.4668275,52.8664541 C52.3356507,46.7508632 54.9047553,41.1850833 58.4525665,36.2917647 C62.0088148,31.4026755 66.5268954,27.1479836 72.5763142,23.6122754 C85.2868433,16.1940552 99.0477946,13.4492291 112.652659,13.4449998 C128.139002,13.4323118 143.287861,17.0737529 155.542785,21.2353998 C155.445758,23.3373699 155.133585,25.9299406 154.644231,28.7424357 C153.741459,33.9360357 152.277618,39.8486195 150.788465,45.2621439 C150.105058,47.7405231 149.421651,50.1004814 148.776211,52.2743498 C140.866406,49.707155 133.821406,48.3241687 127.396535,48.3114808 C121.929278,48.3072514 116.850129,49.3434339 112.41642,51.6568697 Z" id="Shape"></path>
        </g>
    </g>
</svg>