<?xml version="1.0" encoding="UTF-8"?>
<svg width="429px" height="281px" viewBox="0 0 429 281" version="1.1" xmlns="http://www.w3.org/2000/svg" xmlns:xlink="http://www.w3.org/1999/xlink">
    <!-- Generator: Sketch 48.2 (47327) - http://www.bohemiancoding.com/sketch -->
    <title>noun_173860_cc</title>
    <desc>Created with Sketch.</desc>
    <defs></defs>
    <g id="Homepage" stroke="none" stroke-width="1" fill="none" fill-rule="evenodd" transform="translate(-333.000000, -4973.000000)">
        <g id="noun_173860_cc" transform="translate(333.000000, 4973.000000)" fill="#fff" fill-rule="nonzero">
            <g id="Group">
                <path d="M414.536006,0.952745763 L14.8330397,0.952745763 C6.95138299,0.952745763 0.561370722,7.33212469 0.561370722,15.2114028 L0.561370722,266.396443 C0.561370722,274.270914 6.95619475,280.645486 14.8330397,280.645486 L414.536006,280.645486 C422.417663,280.645486 428.807675,274.266107 428.807675,266.396443 L428.807675,15.2114028 C428.807675,7.32731732 422.412851,0.952745763 414.536006,0.952745763 Z M148.003205,156.384607 C164.829917,170.585575 176.368508,180.214736 179.274809,182.382859 C195.456745,194.4782 208.049111,196.107898 218.235599,196.107898 C237.107307,196.107898 249.959508,187.305605 255.926085,182.060766 L284.931352,156.697086 L407.905406,256.123095 L407.847665,261.031419 L21.5358161,261.031419 L21.458828,256.123095 L148.003205,156.384607 Z M20.2077714,227.038512 L20.2077714,47.7572923 C26.4101252,53.040591 33.974206,59.4872731 42.2744855,66.5541058 C75.0425454,94.460884 107.584453,122.156138 132.798055,143.529701 L20.2077714,227.038512 Z M300.887136,142.76533 L409.156462,48.1418818 L409.156462,226.471242 L300.887136,142.76533 Z M409.161274,20.5716195 L409.161274,21.8167281 L240.744995,162.768793 C233.479243,168.359763 226.126879,171.07112 218.274093,171.07112 C210.334695,171.07112 202.015169,168.143432 193.815936,162.61015 C184.29347,155.466399 50.1850127,45.5122508 20.2077714,20.9129427 L20.2077714,20.5668121 L409.161274,20.5668121 L409.161274,20.5716195 Z" id="Shape"></path>
            </g>
        </g>
    </g>
</svg>