<?xml version="1.0" encoding="UTF-8"?>
<svg width="263px" height="532px" viewBox="0 0 263 532" version="1.1" xmlns="http://www.w3.org/2000/svg" xmlns:xlink="http://www.w3.org/1999/xlink">
    <!-- Generator: Sketch 48.2 (47327) - http://www.bohemiancoding.com/sketch -->
    <title>noun_1322098_cc</title>
    <desc>Created with Sketch.</desc>
    <defs></defs>
    <g id="Homepage" stroke="none" stroke-width="1" fill="none" fill-rule="evenodd" transform="translate(-631.000000, -5405.000000)">
        <g id="noun_1322098_cc" transform="translate(631.000000, 5405.000000)" fill="#000000" fill-rule="nonzero">
            <path d="M227.459459,0 L35.5405405,0 C15.9103153,0 0,15.8772444 0,35.4666667 L0,496.533333 C0,516.122756 15.9103153,532 35.5405405,532 L227.459459,532 C247.089685,532 263,516.122756 263,496.533333 L263,35.4666667 C263,15.8772444 247.089685,0 227.459459,0 Z M245.22973,39.0133333 C245.22973,38.1857778 245.075721,37.4055111 244.986869,36.6075111 L18.0309009,495.546178 C17.9242793,494.694978 17.7702703,493.861511 17.7702703,492.986667 L17.7702703,39.0133333 C17.7702703,27.2620444 27.3188288,17.7333333 39.0945946,17.7333333 L68.8361036,17.7333333 C71.1699324,17.7333333 72.3368468,19.152 72.3368468,20.5706667 C72.3368468,21.5164444 71.7504279,31.92 86.9321622,31.92 L179.758131,31.92 C194.939865,31.92 194.353446,21.5164444 194.353446,20.5706667 C194.353446,19.152 195.52036,17.7333333 197.854189,17.7333333 L223.905405,17.7333333 C235.681171,17.7333333 245.22973,27.2620444 245.22973,39.0133333 Z" id="Shape"></path>
        </g>
    </g>
</svg>