<?xml version="1.0" encoding="UTF-8"?>
<svg width="241px" height="434px" viewBox="0 0 241 434" version="1.1" xmlns="http://www.w3.org/2000/svg" xmlns:xlink="http://www.w3.org/1999/xlink">
    <!-- Generator: Sketch 48.2 (47327) - http://www.bohemiancoding.com/sketch -->
    <title>noun_1273657_cc</title>
    <desc>Created with Sketch.</desc>
    <defs></defs>
    <g id="Homepage" stroke="none" stroke-width="1" fill="none" fill-rule="evenodd" transform="translate(-292.000000, -5454.000000)">
        <g id="noun_1273657_cc" transform="translate(292.000000, 5454.000000)" fill="#fff" fill-rule="nonzero">
            <g id="Group">
                <g id="Shape">
                    <path d="M43.38,7.10542736e-15 L197.62,1.53284145e-14 C221.578112,1.12683518e-14 241,19.4308418 241,43.4 L241,390.6 C241,414.569158 221.578112,434 197.62,434 L43.38,434 C19.4218878,434 0,414.569158 0,390.6 L0,43.4 C0,19.4308418 19.4218878,1.15084903e-14 43.38,7.10542736e-15 Z M44.1082586,19.2888889 C27.556086,19.2888889 19.28,27.4049697 19.28,43.6371314 L19.28,390.362869 C19.28,406.59503 27.556086,414.711111 44.1082586,414.711111 L196.891741,414.711111 C213.443914,414.711111 221.72,406.59503 221.72,390.362869 L221.72,43.6371314 C221.72,27.4049697 213.443914,19.2888889 196.891741,19.2888889 L44.1082586,19.2888889 Z M156.42635,38.5777778 C142.958625,38.5777778 95.065354,38.5777778 84.8100579,38.5777778 C71.3428367,38.5777778 71.8603225,22.8335357 71.8603225,21.947374 C71.8603225,20.6181315 70.824344,19.2888889 68.752386,19.2888889 C67.7164075,19.2888889 67.2502345,19.2888889 67.5894757,19.2888889 C73.4563513,19.2888889 108.766526,19.2888889 173.52,19.2888889 L172.484021,19.2888889 C170.412064,19.2888889 169.376393,20.6181315 169.376085,21.947374 C169.375879,22.8335357 169.894074,38.5777778 156.42635,38.5777778 Z"></path>
                </g>
            </g>
        </g>
    </g>
</svg>